<?xml version="1.0" encoding="UTF-8"?>
<svg version="1.1" xmlns="http://www.w3.org/2000/svg" width="480" height="640">
<path d="M0 0 C158.4 0 316.8 0 480 0 C480 211.2 480 422.4 480 640 C321.6 640 163.2 640 0 640 C0 428.8 0 217.6 0 0 Z " fill="#090909" transform="translate(0,0)"/>
<path d="M0 0 C3.46110053 2.87619388 6.74015915 5.89973178 10 9 C11.36812545 10.21611151 12.74277968 11.42493274 14.125 12.625 C14.76566406 13.18445313 15.40632812 13.74390625 16.06640625 14.3203125 C17.38359812 15.46453978 18.70405038 16.6050221 20.02734375 17.7421875 C22.03525407 19.47646704 24.02076286 21.23311016 26 23 C26.57492187 23.49628906 27.14984375 23.99257812 27.7421875 24.50390625 C41.23994753 36.91313725 49.71764778 56.54054309 51.31787109 74.58422852 C51.4719533 78.31187103 51.51749603 82.01927178 51.5 85.75 C51.49863037 87.05952637 51.49726074 88.36905273 51.49584961 89.71826172 C51.3234014 100.64809667 49.5346062 110.12077367 45.0625 120.08984375 C44.95387295 123.40975795 47.28008005 125.07491678 49.4375 127.4375 C54.77977846 133.52017152 59.0227728 139.93398674 63 147 C63.60714844 148.06605469 64.21429688 149.13210938 64.83984375 150.23046875 C81.29637465 180.94692576 80.66806712 214.26642322 71.61499023 247.07055664 C71 249 71 249 69.62890625 251.69140625 C68.69544868 254.1320054 68.69544868 254.1320054 70.30859375 256.76953125 C71.01113281 257.77371094 71.71367187 258.77789062 72.4375 259.8125 C88.38282374 283.90078222 93.02260525 314.25533112 87.5 342.5 C84.68045309 355.53360439 79.53308503 369.60405838 71 380 C70.30648438 380.86496094 69.61296875 381.72992187 68.8984375 382.62109375 C47.99218504 407.17061822 13.24750764 418.31655792 -17.9382782 421.27912903 C-27.75205217 422.03869478 -37.51671119 422.18082479 -47.35546875 422.203125 C-48.2135998 422.20595238 -49.07173084 422.20877975 -49.95586586 422.21169281 C-54.50630612 422.22657953 -59.0567156 422.23587264 -63.60717773 422.24023438 C-67.30421939 422.244598 -71.00102491 422.25842259 -74.69799805 422.28125 C-122.11252923 422.56799169 -172.43029143 419.72673833 -210 387 C-210.79857422 386.32396729 -210.79857422 386.32396729 -211.61328125 385.63427734 C-220.28727343 378.19462117 -224.75865284 370.90990019 -228 360 C-228.20061035 359.33967773 -228.4012207 358.67935547 -228.60791016 357.99902344 C-237.05602277 329.7009445 -235.14853359 298.82396217 -223 272 C-222.44183594 270.97519531 -221.88367188 269.95039063 -221.30859375 268.89453125 C-218.04010444 261.66482803 -221.45421991 252.62032904 -223.23828125 245.2578125 C-233.50371015 201.35336275 -225.20379075 155.72237833 -203 117 C-202.34 116.01 -201.68 115.02 -201 114 C-201.56847656 113.89945313 -202.13695312 113.79890625 -202.72265625 113.6953125 C-209.12964894 112.13367488 -211.89753188 109.46984493 -215.37109375 103.94921875 C-225.29247564 85.98604531 -230.08694232 68.37426379 -225 48 C-221.20571207 36.48374328 -214.7573051 26.88625426 -207.09375 17.6015625 C-204.82717131 14.7852539 -202.73518575 11.87244144 -200.625 8.9375 C-190.8414493 -4.07945587 -177.90004365 -13.18816687 -162 -17 C-160.96230469 -17.34804687 -159.92460937 -17.69609375 -158.85546875 -18.0546875 C-154.0719786 -19.22753919 -149.65407108 -19.30136762 -144.75 -19.25 C-143.81269043 -19.24250732 -142.87538086 -19.23501465 -141.90966797 -19.22729492 C-128.81325626 -19.02348187 -116.95587982 -15.82691198 -104.91015625 -10.6796875 C-101.05340031 -9.77891497 -99.67019058 -10.715846 -96.25 -12.625 C-65.31512844 -27.88247059 -26.83543123 -20.19538222 0 0 Z " fill="#090909" transform="translate(317,186)"/>
<path d="M0 0 C2.64212018 0.27811791 4.49923518 0.64760994 6.6875 2.1875 C8 4 8 4 8.875 6.8125 C10.01694363 10.04800695 11.51582759 11.83370049 13.76171875 14.37109375 C17.41175612 19.17256246 18.38982277 25.14229863 19 31 C19.66 30.34 20.32 29.68 21 29 C23.49609375 28.69921875 23.49609375 28.69921875 26.4375 28.6875 C27.40558594 28.67074219 28.37367188 28.65398437 29.37109375 28.63671875 C32 29 32 29 33.79296875 30.3515625 C35 32 35 32 35.875 34.6875 C37.09105181 38.26809699 38.77304414 40.9583857 40.87890625 44.0703125 C44.27833089 49.92158697 43.81437109 57.61416368 42.28125 63.98828125 C40.46912294 69.38812762 38.68745959 73.51165798 34 77 C32.79195781 77.57351996 31.56818501 78.11488731 30.33203125 78.625 C29.23246094 79.07875 28.13289063 79.5325 27 80 C26.85365112 93.30851664 27.04550117 106.48910367 28.05349731 119.76016235 C30.458418 151.76215321 31.82204305 183.8364314 33.32546997 215.89030457 C33.70190209 223.89583403 34.09254256 231.89960887 34.54095459 239.90150452 C36.20417618 269.67256156 36.18021588 299.44128968 36.1875 329.25 C36.18808914 330.33496387 36.18867828 331.41992775 36.18928528 332.53776932 C36.1922115 338.85482019 36.18815115 345.17180357 36.17401314 351.4888401 C36.17003757 353.43853324 36.16749825 355.38822992 36.16651726 357.33792686 C36.15836225 367.60955717 36.02638034 377.77019098 35 388 C34.34 388 33.68 388 33 388 C33.00444122 387.08024887 33.00888245 386.16049774 33.01345825 385.21287537 C33.41087599 298.67035185 30.29576652 212.77724521 25.51646996 126.36303711 C24.93990363 115.93259036 24.37480505 105.50153647 23.8125 95.0703125 C23.72778897 93.50031504 23.64307242 91.93031787 23.55834961 90.36032104 C23.37203988 86.90689109 23.18593991 83.45344989 23 80 C21.88471924 79.70198486 20.76943848 79.40396973 19.62036133 79.09692383 C13.9434445 77.37688962 11.56703659 73.63547063 8.625 68.6875 C7.64695113 64.48188984 7.84981794 60.29687563 8 56 C7.1646875 56.495 7.1646875 56.495 6.3125 57 C4 58 4 58 -1 58 C-1 168.22 -1 278.44 -1 392 C-1.66 392 -2.32 392 -3 392 C-3 282.11 -3 172.22 -3 59 C-6.98171738 58.2790955 -6.98171738 58.2790955 -11 58 C-10.94779297 58.90878906 -10.94779297 58.90878906 -10.89453125 59.8359375 C-10.65934787 67.11542309 -10.93474542 74.3508874 -15.8046875 80.1484375 C-19.50011432 83.56496418 -22.02857538 85.11741059 -27 86 C-27.0501123 87.02955811 -27.10022461 88.05911621 -27.15185547 89.11987305 C-27.34653699 93.10325542 -27.54511945 97.08643686 -27.74462891 101.06958008 C-27.8289549 102.76289031 -27.91235113 104.45624721 -27.99462891 106.1496582 C-28.51881899 116.92144091 -29.17529163 127.67653619 -29.9453125 138.43359375 C-32.03529602 167.91134047 -33.26900642 197.44905397 -34.6640358 226.96609974 C-34.89315953 231.7993072 -35.13075776 236.6319803 -35.37695312 241.46435547 C-37.85012931 290.26626084 -37.19402247 339.15187406 -37 388 C-37.66 388 -38.32 388 -39 388 C-39.77500269 381.81508844 -40.15279151 375.78758641 -40.16113281 369.55810547 C-40.16602407 368.6550533 -40.17091534 367.75200113 -40.17595482 366.82158375 C-40.19033473 363.83677936 -40.19717411 360.85201986 -40.203125 357.8671875 C-40.21000751 355.74127685 -40.21695684 353.61536641 -40.22396851 351.48945618 C-40.24327387 344.61796958 -40.2476426 337.74651022 -40.25 330.875 C-40.25088371 329.70789616 -40.25176743 328.54079231 -40.25267792 327.33832169 C-40.27338377 296.59651491 -40.04581841 265.89960006 -38.625 235.1875 C-38.57739281 234.15343143 -38.57739281 234.15343143 -38.52882385 233.0984726 C-38.11008176 224.08154385 -37.62836354 215.06849246 -37.1163063 206.05640411 C-36.99210519 203.86041242 -36.86979782 201.66432108 -36.74789429 199.46820068 C-36.48657293 194.76122212 -36.22247155 190.05440421 -35.95703125 185.34765625 C-35.91595371 184.61663382 -35.87487617 183.88561138 -35.83255386 183.13243675 C-35.32667748 174.16481635 -34.75150459 165.20572813 -34.0625 156.25 C-32.30578672 132.86144409 -31.23825942 109.42044844 -30 86 C-31.11076904 85.70577148 -32.22153809 85.41154297 -33.3659668 85.10839844 C-37.10086942 83.96923432 -38.38158397 83.18759407 -40.8125 80.25 C-41.37582031 79.59515625 -41.93914062 78.9403125 -42.51953125 78.265625 C-47.28327965 70.97545594 -47.09677907 61.40178037 -46 53 C-44.60174266 48.90918763 -43.0013321 45.00066605 -39 43 C-38.26924352 40.6859378 -37.59861742 38.35171131 -37 36 C-32.58300512 34.89575128 -28.52642225 34.84911926 -24 35 C-23.505 35.495 -23.505 35.495 -23 36 C-22.97421875 35.24976563 -22.9484375 34.49953125 -22.921875 33.7265625 C-22.34982608 23.40367964 -20.48882523 16.29175088 -13 9 C-11.72234735 5.36456099 -11.72234735 5.36456099 -11 2 C-10 1 -10 1 -7.96875 0.9375 C-6.32291667 0.97916667 -4.67708333 1.02083333 -3.03125 1.0625 C-1.00390764 1.23224945 -1.00390764 1.23224945 0 0 Z " fill="#6D6D6D" transform="translate(248,179)"/>
<path d="M0 0 C3.46110053 2.87619388 6.74015915 5.89973178 10 9 C11.36812545 10.21611151 12.74277968 11.42493274 14.125 12.625 C14.76566406 13.18445313 15.40632812 13.74390625 16.06640625 14.3203125 C17.38359812 15.46453978 18.70405038 16.6050221 20.02734375 17.7421875 C22.03525407 19.47646704 24.02076286 21.23311016 26 23 C26.57492187 23.49628906 27.14984375 23.99257812 27.7421875 24.50390625 C41.23994753 36.91313725 49.71764778 56.54054309 51.31787109 74.58422852 C51.4719533 78.31187103 51.51749603 82.01927178 51.5 85.75 C51.49863037 87.05952637 51.49726074 88.36905273 51.49584961 89.71826172 C51.3234014 100.64809667 49.5346062 110.12077367 45.0625 120.08984375 C44.95387295 123.40975795 47.28008005 125.07491678 49.4375 127.4375 C54.77977846 133.52017152 59.0227728 139.93398674 63 147 C63.60714844 148.06605469 64.21429688 149.13210938 64.83984375 150.23046875 C81.29637465 180.94692576 80.66806712 214.26642322 71.61499023 247.07055664 C71 249 71 249 69.62890625 251.69140625 C68.69544868 254.1320054 68.69544868 254.1320054 70.30859375 256.76953125 C71.01113281 257.77371094 71.71367187 258.77789062 72.4375 259.8125 C88.38282374 283.90078222 93.02260525 314.25533112 87.5 342.5 C84.68045309 355.53360439 79.53308503 369.60405838 71 380 C70.30648438 380.86496094 69.61296875 381.72992187 68.8984375 382.62109375 C47.99218504 407.17061822 13.24750764 418.31655792 -17.9382782 421.27912903 C-27.75205217 422.03869478 -37.51671119 422.18082479 -47.35546875 422.203125 C-48.2135998 422.20595238 -49.07173084 422.20877975 -49.95586586 422.21169281 C-54.50630612 422.22657953 -59.0567156 422.23587264 -63.60717773 422.24023438 C-67.30421939 422.244598 -71.00102491 422.25842259 -74.69799805 422.28125 C-122.11252923 422.56799169 -172.43029143 419.72673833 -210 387 C-210.79857422 386.32396729 -210.79857422 386.32396729 -211.61328125 385.63427734 C-220.28727343 378.19462117 -224.75865284 370.90990019 -228 360 C-228.20061035 359.33967773 -228.4012207 358.67935547 -228.60791016 357.99902344 C-237.05602277 329.7009445 -235.14853359 298.82396217 -223 272 C-222.44183594 270.97519531 -221.88367188 269.95039063 -221.30859375 268.89453125 C-218.04010444 261.66482803 -221.45421991 252.62032904 -223.23828125 245.2578125 C-233.50371015 201.35336275 -225.20379075 155.72237833 -203 117 C-202.34 116.01 -201.68 115.02 -201 114 C-201.56847656 113.89945313 -202.13695312 113.79890625 -202.72265625 113.6953125 C-209.12964894 112.13367488 -211.89753188 109.46984493 -215.37109375 103.94921875 C-225.29247564 85.98604531 -230.08694232 68.37426379 -225 48 C-221.20571207 36.48374328 -214.7573051 26.88625426 -207.09375 17.6015625 C-204.82717131 14.7852539 -202.73518575 11.87244144 -200.625 8.9375 C-190.8414493 -4.07945587 -177.90004365 -13.18816687 -162 -17 C-160.96230469 -17.34804687 -159.92460937 -17.69609375 -158.85546875 -18.0546875 C-154.0719786 -19.22753919 -149.65407108 -19.30136762 -144.75 -19.25 C-143.81269043 -19.24250732 -142.87538086 -19.23501465 -141.90966797 -19.22729492 C-128.81325626 -19.02348187 -116.95587982 -15.82691198 -104.91015625 -10.6796875 C-101.05340031 -9.77891497 -99.67019058 -10.715846 -96.25 -12.625 C-65.31512844 -27.88247059 -26.83543123 -20.19538222 0 0 Z M-95.5 -10.5625 C-102.37900817 -7.45206009 -102.37900817 -7.45206009 -106.625 -8.875 C-108.0935999 -9.56179441 -109.55140846 -10.2719514 -111 -11 C-130.76973811 -18.38254556 -152.49732786 -20.22165527 -172.1328125 -11.3984375 C-185.41802057 -4.91873111 -195.36530098 3.62454777 -203.14453125 16.18359375 C-204.89309662 18.83773192 -206.71906486 20.92548067 -208.9375 23.1875 C-220.0250737 35.28303495 -225.80065487 51.62734286 -225.28125 67.9453125 C-223.97324872 82.15165971 -219.12656573 100.23833907 -208 110 C-204.72543961 111.26482139 -201.41185139 112.18463781 -198 113 C-198.29132813 113.47083008 -198.58265625 113.94166016 -198.8828125 114.42675781 C-216.65501909 143.41836841 -224.43217154 173.27296517 -224.4375 207.1875 C-224.44109528 208.56390152 -224.44109528 208.56390152 -224.44476318 209.96810913 C-224.4451125 226.02792435 -224.15098 243.56468924 -217.91064453 258.62988281 C-216.66405706 261.8743523 -217.09077622 263.65653618 -218 267 C-218.86559218 268.84646182 -219.73704057 270.69141744 -220.6796875 272.49975586 C-229.03180164 288.5962459 -231.45072352 304.37752254 -231.5625 322.3125 C-231.57144287 323.021716 -231.58038574 323.73093201 -231.58959961 324.4616394 C-231.68029584 335.1912831 -230.02597527 344.72232931 -227 355 C-226.75838135 355.8463501 -226.5167627 356.6927002 -226.26782227 357.56469727 C-225.71630862 359.42971607 -225.11129867 361.27871281 -224.5 363.125 C-224.1184375 364.30320312 -223.736875 365.48140625 -223.34375 366.6953125 C-214.93530059 387.37423169 -190.52757808 399.42865144 -171.171875 407.65234375 C-140.09356799 420.31402283 -106.40175345 420.53487796 -73.37109375 420.44604492 C-69.79012713 420.43684333 -66.2098121 420.44383414 -62.62890625 420.46655273 C-25.72746307 420.69898841 11.18746168 418.92587205 44 400 C44.98613281 399.44828125 45.97226562 398.8965625 46.98828125 398.328125 C67.90970055 385.89955908 78.3900717 367.64544242 84.3125 344.6875 C85.81264828 338.45783119 86.80511479 332.40685114 87 326 C87.02578125 325.32630371 87.0515625 324.65260742 87.078125 323.95849609 C87.89845642 300.23553685 82.82907188 279.04504455 69.8203125 259.00390625 C67.14147625 254.58325159 67.14147625 254.58325159 67 252 C67.85546875 249.5390625 67.85546875 249.5390625 69.1875 246.625 C80.23864699 218.9662634 78.03887536 187.67956869 67.43359375 160.2578125 C61.83557522 147.53642978 54.87783407 136.29124501 45.375 126.0625 C43 123 43 123 43.2265625 120.73828125 C44.46956032 116.33756675 45.75289976 111.95169566 47.0625 107.5703125 C52.90445273 85.32220919 49.28936455 61.02845762 37.97558594 41.20507812 C31.26384228 30.16297511 22.42743436 21.33787455 12.09765625 13.66796875 C9.94657395 11.95751783 8.13210039 10.12497724 6.25 8.125 C-10.99970203 -9.46493283 -36.49202865 -18.01336113 -60.6875 -18.375 C-73.17482536 -18.35391248 -84.24648651 -15.9172408 -95.5 -10.5625 Z " fill="#474747" transform="translate(317,186)"/>
<path d="M0 0 C1.21816406 0.03480469 1.21816406 0.03480469 2.4609375 0.0703125 C3.68683594 0.09738281 3.68683594 0.09738281 4.9375 0.125 C5.87722656 0.15980469 5.87722656 0.15980469 6.8359375 0.1953125 C6.5059375 1.1853125 6.1759375 2.1753125 5.8359375 3.1953125 C3.5259375 3.1953125 1.2159375 3.1953125 -1.1640625 3.1953125 C-1.4940625 4.1853125 -1.8240625 5.1753125 -2.1640625 6.1953125 C-1.1740625 5.8653125 -0.1840625 5.5353125 0.8359375 5.1953125 C6.55672525 4.72940055 11.92449478 4.39598191 17.2734375 6.6328125 C24.93593802 14.29531302 27.81356445 21.94099382 28.2109375 32.6328125 C28.08710378 39.31209384 26.87545392 44.63023128 22.48046875 49.78515625 C18.93376454 53.06561993 15.42041944 54.18672647 10.8359375 55.1953125 C-16.35370649 161.78826912 -16.35370649 161.78826912 -12.1640625 268.1953125 C-12.8240625 268.1953125 -13.4840625 268.1953125 -14.1640625 268.1953125 C-14.1640625 281.3953125 -14.1640625 294.5953125 -14.1640625 308.1953125 C-14.8240625 308.1953125 -15.4840625 308.1953125 -16.1640625 308.1953125 C-16.11056641 307.00566895 -16.05707031 305.81602539 -16.00195312 304.59033203 C-15.82333164 300.13600152 -15.75243119 295.68509066 -15.71240234 291.22753906 C-15.68046185 289.3065926 -15.62009134 287.38588528 -15.52978516 285.46679688 C-14.70655804 274.81513776 -14.70655804 274.81513776 -18.69482422 265.39834595 C-22.49199771 262.29644082 -26.68689263 260.30045956 -31.12297058 258.28070068 C-36.9402656 255.18724702 -41.58354498 249.85630523 -46.1640625 245.1953125 C-46.92332031 244.43476563 -47.68257812 243.67421875 -48.46484375 242.890625 C-67.07319378 223.1621607 -75.12072258 195.93562866 -75.2890625 169.3828125 C-75.29389648 168.65255859 -75.29873047 167.92230469 -75.30371094 167.16992188 C-75.29150732 163.38679988 -75.0743375 159.87253454 -74.1640625 156.1953125 C-73.5040625 156.1953125 -72.8440625 156.1953125 -72.1640625 156.1953125 C-72.14947998 156.85313721 -72.13489746 157.51096191 -72.11987305 158.1887207 C-71.34635406 189.61873767 -67.08243564 218.13571286 -45.1640625 242.1953125 C-44.24560547 243.23558594 -44.24560547 243.23558594 -43.30859375 244.296875 C-36.04585177 252.07064147 -26.78367743 258.67789454 -17.1640625 263.1953125 C-16.41499704 258.45451661 -16.00341985 253.84358326 -15.8828125 249.046875 C-15.85519836 248.06163345 -15.85519836 248.06163345 -15.82702637 247.05648804 C-15.76891181 244.97784394 -15.71586332 242.89912287 -15.6640625 240.8203125 C-15.27309287 225.21075872 -15.27309287 225.21075872 -14.4140625 218.46484375 C-14.10650557 215.6728035 -13.95374492 212.88702084 -13.8046875 210.08203125 C-11.9632259 175.58564169 -7.56376442 141.30202346 -2.1640625 107.1953125 C-1.95561092 105.86509014 -1.74727772 104.53484922 -1.5390625 103.20458984 C1.04791955 86.73963358 4.06645276 70.43197408 7.8359375 54.1953125 C6.74667969 54.07285156 5.65742188 53.95039063 4.53515625 53.82421875 C0.15218105 53.07906668 -2.33950839 51.51928053 -5.1640625 48.1953125 C-10.90279239 39.0509757 -12.80723282 29.08478096 -10.59375 18.45703125 C-8.85425669 12.86318698 -8.85425669 12.86318698 -6.59375 10.67578125 C-4.30054178 8.30112028 -4.56927385 5.37911597 -4.1640625 2.1953125 C-2.1640625 0.1953125 -2.1640625 0.1953125 0 0 Z " fill="#5E5E5E" transform="translate(185.1640625,252.8046875)"/>
<path d="M0 0 C1.60495567 0.11442461 3.20898119 0.24194694 4.8125 0.375 C6.15248047 0.47941406 6.15248047 0.47941406 7.51953125 0.5859375 C10 1 10 1 13 3 C13.12375 4.03125 13.2475 5.0625 13.375 6.125 C13.994333 9.96486458 14.32652525 10.61278119 16.5625 13.4375 C20.56814024 19.45179949 19.99821912 27.09239173 19 34 C17.259683 40.85393567 14.60342443 46.70586762 8.84765625 51.01953125 C5.87804236 52.59537287 3.34333622 52.8635373 0 53 C0.17813232 53.72960937 0.35626465 54.45921875 0.53979492 55.2109375 C2.81074389 64.75113153 4.62385437 74.34203492 6.3125 84 C6.46273621 84.85902924 6.61297241 85.71805847 6.76776123 86.6031189 C16.48112571 142.53894282 23.62778739 200.14402261 23 257 C44.29133634 243.32659148 59.0949414 221.83057355 64.90234375 197.16796875 C67.48893423 184.50499715 67.31957638 171.87155308 67 159 C67.66 159 68.32 159 69 159 C72.43000352 172.36041693 70.21917837 187.82242873 67 201 C66.80664062 201.86109375 66.61328125 202.7221875 66.4140625 203.609375 C62.93111715 217.08882583 55.86421405 229.40387912 47 240 C46.38769531 240.77472656 45.77539062 241.54945313 45.14453125 242.34765625 C39.41306696 249.27673994 32.3362389 254.8492286 25 260 C24.34 260 23.68 260 23 260 C23.00523682 260.82387207 23.01047363 261.64774414 23.01586914 262.49658203 C23.16878334 290.334709 23.16878334 290.334709 22.5625 303.5625 C22.52326416 304.43986816 22.48402832 305.31723633 22.44360352 306.22119141 C22.22072728 310.549525 21.82266295 314.73459628 21 319 C20.34 319 19.68 319 19 319 C19.33 300.52 19.66 282.04 20 263 C12.08 266.96 12.08 266.96 4 271 C3.01 271 2.02 271 1 271 C1 270.34 1 269.68 1 269 C7 266 13 263 19 260 C19.26846604 237.89491959 18.73801493 216.04666921 17 194 C16.89930206 192.69269424 16.89930206 192.69269424 16.79656982 191.35897827 C15.64976649 176.54987804 14.18851213 161.804584 12.375 147.0625 C12.24983002 146.03593292 12.12466003 145.00936584 11.99569702 143.95169067 C8.50211093 115.50158366 4.0245528 87.13709119 -1.4777832 59.00415039 C-2 56 -2 56 -2 53 C-2.845625 52.95875 -3.69125 52.9175 -4.5625 52.875 C-9.72949642 51.55976455 -13.21035518 48.77268916 -16.109375 44.28125 C-19.49826532 36.73617343 -19.18141792 27.36337384 -16.4375 19.6875 C-14.0467833 14.44334723 -10.28270265 8.64135133 -5 6 C-2.85595831 5.90293287 -0.70873249 5.87021464 1.4375 5.875 C2.59121094 5.87242187 3.74492187 5.86984375 4.93359375 5.8671875 C8 6 8 6 11 7 C10.67 6.01 10.34 5.02 10 4 C8.906875 4.0825 7.81375 4.165 6.6875 4.25 C5.470625 4.1675 4.25375 4.085 3 4 C1.26953125 1.984375 1.26953125 1.984375 0 0 Z " fill="#565656" transform="translate(298,242)"/>
<path d="M0 0 C4.89476459 3.96985154 7.63685252 8.69246307 8.90234375 14.8671875 C9.59156725 22.31080133 9.74166516 28.00716235 5.125 34.08984375 C3.61734247 36.0571472 3.61734247 36.0571472 2.96484375 39.6796875 C1.90234375 42.8671875 1.90234375 42.8671875 -1.03515625 44.8046875 C-4.09765625 45.8671875 -4.09765625 45.8671875 -7.09765625 45.8671875 C-7.09765625 44.5471875 -7.09765625 43.2271875 -7.09765625 41.8671875 C-7.75765625 41.8671875 -8.41765625 41.8671875 -9.09765625 41.8671875 C-9.09765625 43.1871875 -9.09765625 44.5071875 -9.09765625 45.8671875 C-13.99271581 45.41183312 -16.64848978 44.40712151 -20.09765625 40.8671875 C-25.85294199 31.46173732 -26.18733721 21.73217755 -24.47265625 10.9296875 C-22.29845345 6.0871449 -19.34411418 2.30242451 -14.84765625 -0.5703125 C-9.81162574 -1.60040965 -4.69668411 -2.53638434 0 0 Z " fill="#0A0A0A" transform="translate(254.09765625,189.1328125)"/>
<path d="M0 0 C5.80044999 2.90022499 9.36606463 6.94994139 11.75 12.9375 C14.00494374 20.38753511 14.62212878 29.4272301 11.3125 36.625 C8.78420059 40.78245009 5.96636523 43.47563594 1.1875 44.75 C0.465625 44.8325 -0.25625 44.915 -1 45 C-0.67 43.02 -0.34 41.04 0 39 C-0.66 39 -1.32 39 -2 39 C-2.33 40.65 -2.66 42.3 -3 44 C-6.81664019 44.45436193 -8.69231501 44.17581999 -12.0625 42.25 C-17.38404285 37.22331836 -19.65976084 30.20980343 -20.4140625 23.09375 C-20.57647931 15.59304648 -20.25705175 10.19874575 -15.52734375 4.1015625 C-10.71181853 -0.37084176 -6.45267686 -1.24787305 0 0 Z " fill="#0A0A0A" transform="translate(197,260)"/>
<path d="M0 0 C4.79053409 2.51223337 7.05919483 5.39573355 8.65234375 10.46484375 C9.62229634 19.19441705 8.95393555 26.29916014 4.96484375 34.27734375 C2.43124346 37.30530507 0.23389587 39.09797567 -3.03515625 41.27734375 C-6.22265625 41.40234375 -6.22265625 41.40234375 -9.03515625 41.27734375 C-9.03515625 40.28734375 -9.03515625 39.29734375 -9.03515625 38.27734375 C-9.69515625 38.27734375 -10.35515625 38.27734375 -11.03515625 38.27734375 C-11.03515625 39.26734375 -11.03515625 40.25734375 -11.03515625 41.27734375 C-13.8952466 41.19322345 -15.58164452 40.70915636 -17.66796875 38.72265625 C-23.81048297 31.57122665 -23.54837349 25.45926669 -23.03515625 16.27734375 C-21.92487514 10.05277562 -19.48318495 5.72537245 -15.03515625 1.27734375 C-10.35867001 -1.53434529 -5.14572313 -1.82717616 0 0 Z " fill="#0A0A0A" transform="translate(306.03515625,250.72265625)"/>
<path d="M0 0 C1.04644066 1.63790712 2.0398183 3.31008021 3 5 C4.98689731 6.35278115 6.98745218 7.68568305 9 9 C15.58281633 15.95897726 16.57573886 22.34422766 16.34765625 31.67578125 C15.86314894 36.30854214 15.00557602 38.44076524 12 42 C7.77737852 45.1166968 3.59578613 45.65759332 -1.5390625 45.46484375 C-6.84957761 44.46174645 -9.4655101 41.09142405 -12.5390625 36.90234375 C-16.76639558 29.82923617 -17.29776091 22.05506774 -16 14 C-14.02081458 10.42335885 -12.92156059 8.46078029 -9.25 6.625 C-8.13625 6.315625 -8.13625 6.315625 -7 6 C-7.99 4.68 -8.98 3.36 -10 2 C-6.56062459 0.4277141 -3.78596147 -0.69741396 0 0 Z " fill="#0B0B0B" transform="translate(158,293)"/>
<path d="M0 0 C4.71055979 3.50786367 7.03441603 7.66725301 8.9375 13.1875 C9.93805659 20.51733499 10.19211959 28.17127974 6.21484375 34.66796875 C4.10516076 37.17765279 1.83633616 38.70724324 -1.0625 40.1875 C-2.0525 40.1875 -3.0425 40.1875 -4.0625 40.1875 C-4.0625 39.1975 -4.0625 38.2075 -4.0625 37.1875 C-4.7225 37.1875 -5.3825 37.1875 -6.0625 37.1875 C-6.0625 38.1775 -6.0625 39.1675 -6.0625 40.1875 C-10.96921223 39.73106165 -13.72344771 38.87803148 -17.0625 35.1875 C-21.35392363 26.74443853 -22.40621806 18.59791438 -20.0625 9.4375 C-16.63499622 0.33521402 -8.97366575 -2.38076847 0 0 Z " fill="#0A0A0A" transform="translate(225.0625,221.8125)"/>
<path d="M0 0 C4.57445666 2.4646857 7.42529447 6.10091613 9 11 C9.93951624 19.57163586 9.08247385 27.32707684 5 35 C1.66094771 38.69053148 -1.09328777 39.54356165 -6 40 C-6 39.01 -6 38.02 -6 37 C-6.66 37 -7.32 37 -8 37 C-8 37.99 -8 38.98 -8 40 C-12.43489763 39.49315456 -14.88054736 38.2015435 -18 35 C-21.18840943 29.49967617 -22.0857744 23.2357319 -21 17 C-19.94604315 14.79517073 -18.72818455 12.93122696 -17.296875 10.953125 C-15.92212889 8.88272424 -15.2006885 6.98240447 -14.4375 4.625 C-13 1 -13 1 -11.18359375 -0.23046875 C-7.35265751 -1.58054825 -3.87184966 -1.03518203 0 0 Z " fill="#0A0A0A" transform="translate(279,216)"/>
<path d="M0 0 C0.33 0 0.66 0 1 0 C2.90135082 13.30945576 2.01166919 26.66586911 0.94650269 40.00500488 C-1.70407824 73.65943789 -3.10343723 107.40891617 -4.67552376 141.12693119 C-4.89822076 145.88608244 -5.13059008 150.64461232 -5.37255859 155.40283203 C-7.84621109 204.22569937 -7.19410599 253.13084487 -7 302 C-7.66 302 -8.32 302 -9 302 C-9.77500269 295.81508844 -10.15279151 289.78758641 -10.16113281 283.55810547 C-10.16602407 282.6550533 -10.17091534 281.75200113 -10.17595482 280.82158375 C-10.19033473 277.83677936 -10.19717411 274.85201986 -10.203125 271.8671875 C-10.21000751 269.74127685 -10.21695684 267.61536641 -10.22396851 265.48945618 C-10.24327387 258.61796958 -10.2476426 251.74651022 -10.25 244.875 C-10.25088371 243.70789616 -10.25176743 242.54079231 -10.25267792 241.33832169 C-10.27338377 210.59651491 -10.04581841 179.89960006 -8.625 149.1875 C-8.57739281 148.15343143 -8.57739281 148.15343143 -8.52882385 147.0984726 C-8.11008176 138.08154385 -7.62836354 129.06849246 -7.1163063 120.05640411 C-6.99210519 117.86041242 -6.86979782 115.66432108 -6.74789429 113.46820068 C-6.48657293 108.76122212 -6.22247155 104.05440421 -5.95703125 99.34765625 C-5.91595371 98.61663382 -5.87487617 97.88561138 -5.83255386 97.13243675 C-5.32667748 88.16481635 -4.75150459 79.20572813 -4.0625 70.25 C-2.30578672 46.86144409 -1.23825942 23.42044844 0 0 Z " fill="#585858" transform="translate(218,265)"/>
<path d="M0 0 C0.33 0 0.66 0 1 0 C1.0501123 1.05985107 1.10022461 2.11970215 1.15185547 3.21166992 C1.34633622 7.30687472 1.54498357 11.40187019 1.74462891 15.49682617 C1.82902478 17.23863699 1.91242351 18.98049653 1.99462891 20.72241211 C2.51023456 31.62969966 3.16280074 42.51869102 3.9453125 53.41015625 C5.24468911 71.67548055 6.12009135 89.96054933 7 108.25 C7.04301743 109.14394848 7.08603485 110.03789696 7.13035583 110.95893478 C7.52286522 119.12471452 7.91399244 127.29055935 8.29998779 135.45664978 C8.68736496 143.63233874 9.08751836 151.8064384 9.54548645 159.97854614 C11.20692732 189.72366081 11.18022224 219.46731402 11.1875 249.25 C11.18838371 250.87744581 11.18838371 250.87744581 11.18928528 252.53776932 C11.1922115 258.85482019 11.18815115 265.17180357 11.17401314 271.4888401 C11.17003757 273.43853324 11.16749825 275.38822992 11.16651726 277.33792686 C11.15836225 287.60955717 11.02638034 297.77019098 10 308 C9.34 308 8.68 308 8 308 C8.00444122 307.08024887 8.00888245 306.16049774 8.01345825 305.21287537 C8.38881974 223.47336865 5.79685598 142.33449357 1.33984375 60.7109375 C1.27915773 59.59389561 1.21847172 58.47685371 1.15594673 57.32596207 C0.31871972 41.84018932 0.31871972 41.84018932 -0.81538391 26.37408447 C-1.50133078 17.5530991 -0.98485247 8.77573895 0 0 Z " fill="#5E5E5E" transform="translate(273,259)"/>
<path d="M0 0 C2.64212018 0.27811791 4.49923518 0.64760994 6.6875 2.1875 C8 4 8 4 8.875 6.8125 C10.01694363 10.04800695 11.51582759 11.83370049 13.76171875 14.37109375 C17.41175612 19.17256246 18.38982277 25.14229863 19 31 C19.66 30.34 20.32 29.68 21 29 C23.6015625 28.8046875 23.6015625 28.8046875 26.625 28.875 C27.62789063 28.89304688 28.63078125 28.91109375 29.6640625 28.9296875 C30.43492187 28.95289063 31.20578125 28.97609375 32 29 C32.495 31.97 32.495 31.97 33 35 C31.93072266 34.96519531 31.93072266 34.96519531 30.83984375 34.9296875 C29.88207031 34.91164062 28.92429687 34.89359375 27.9375 34.875 C26.99777344 34.85179687 26.05804688 34.82859375 25.08984375 34.8046875 C21.44563349 35.03504213 18.47504339 35.89805116 15 37 C14.90203125 35.92621094 14.8040625 34.85242188 14.703125 33.74609375 C14.55292514 32.30980755 14.40183586 30.87361417 14.25 29.4375 C14.188125 28.73302734 14.12625 28.02855469 14.0625 27.30273438 C13.35292426 20.8869871 11.16208065 16.48003369 6.875 11.5625 C2.5929527 9.23530038 -1.23213772 9.38677012 -6 10 C-10.86492461 11.56044752 -13.16623749 14.04146285 -16.01953125 18.0859375 C-19.44035152 24.76403286 -18.94935113 34.52822879 -17.43359375 41.66796875 C-16.72019032 43.8380598 -15.91750808 45.90874285 -15 48 C-14.71382812 48.69351563 -14.42765625 49.38703125 -14.1328125 50.1015625 C-13.44553818 51.7444754 -12.72648946 53.3740474 -12 55 C-16.20763224 53.4972742 -17.8027758 50.76667005 -20 47 C-20 46.34 -20 45.68 -20 45 C-26.17841869 42.58890978 -31.57541517 42.44252489 -38 44 C-38.125 40.625 -38.125 40.625 -38 37 C-36 35 -36 35 -33.21484375 34.76953125 C-32.13332031 34.78371094 -31.05179688 34.79789063 -29.9375 34.8125 C-28.31134766 34.82216797 -28.31134766 34.82216797 -26.65234375 34.83203125 C-24 35 -24 35 -23 36 C-22.97421875 35.24976563 -22.9484375 34.49953125 -22.921875 33.7265625 C-22.34982608 23.40367964 -20.48882523 16.29175088 -13 9 C-11.72234735 5.36456099 -11.72234735 5.36456099 -11 2 C-10 1 -10 1 -7.96875 0.9375 C-6.32291667 0.97916667 -4.67708333 1.02083333 -3.03125 1.0625 C-1.00390764 1.23224945 -1.00390764 1.23224945 0 0 Z " fill="#8E8E8E" transform="translate(248,179)"/>
<path d="M0 0 C1.21816406 0.03480469 1.21816406 0.03480469 2.4609375 0.0703125 C3.68683594 0.09738281 3.68683594 0.09738281 4.9375 0.125 C5.87722656 0.15980469 5.87722656 0.15980469 6.8359375 0.1953125 C6.5059375 1.1853125 6.1759375 2.1753125 5.8359375 3.1953125 C3.5259375 3.1953125 1.2159375 3.1953125 -1.1640625 3.1953125 C-1.4940625 4.1853125 -1.8240625 5.1753125 -2.1640625 6.1953125 C-1.1740625 5.8653125 -0.1840625 5.5353125 0.8359375 5.1953125 C6.55672525 4.72940055 11.92449478 4.39598191 17.2734375 6.6328125 C24.93593802 14.29531302 27.81356445 21.94099382 28.2109375 32.6328125 C28.08750549 39.29042644 26.94566974 44.81763988 22.33984375 49.8203125 C17.21145117 54.32204364 12.49414098 54.66922282 5.91796875 54.59765625 C1.00526977 53.95632799 -1.93643423 51.87512058 -5.1640625 48.1953125 C-6.86254897 45.63232692 -8.09537616 43.07335887 -9.1640625 40.1953125 C-9.52113281 39.25300781 -9.87820312 38.31070313 -10.24609375 37.33984375 C-12.59468429 29.29467191 -12.10733601 19.69240041 -8.1640625 12.1953125 C-7.38675781 11.44314453 -7.38675781 11.44314453 -6.59375 10.67578125 C-4.30054178 8.30112028 -4.56927385 5.37911597 -4.1640625 2.1953125 C-2.1640625 0.1953125 -2.1640625 0.1953125 0 0 Z M-6.1640625 14.1953125 C-9.80677172 21.21797814 -9.21034005 30.20329215 -7.25390625 37.66796875 C-4.96635322 43.60383785 -2.76331436 47.99574001 2.8359375 51.1953125 C6.08870503 51.61521323 6.08870503 51.61521323 8.8359375 51.1953125 C9.1659375 49.5453125 9.4959375 47.8953125 9.8359375 46.1953125 C10.4959375 46.1953125 11.1559375 46.1953125 11.8359375 46.1953125 C11.5059375 48.1753125 11.1759375 50.1553125 10.8359375 52.1953125 C16.82972793 51.02005947 19.25616899 49.41154662 22.8359375 44.1953125 C26.33784022 37.0568185 25.90257859 27.79238926 23.7109375 20.2578125 C21.74632269 15.26713222 18.55663815 10.85578135 13.94140625 8.0390625 C5.69918578 4.73605764 -0.85552616 7.46856424 -6.1640625 14.1953125 Z " fill="#7F7F7F" transform="translate(185.1640625,252.8046875)"/>
<path d="M0 0 C1.60495567 0.11442461 3.20898119 0.24194694 4.8125 0.375 C6.15248047 0.47941406 6.15248047 0.47941406 7.51953125 0.5859375 C10 1 10 1 13 3 C13.12375 4.03125 13.2475 5.0625 13.375 6.125 C13.994333 9.96486458 14.32652525 10.61278119 16.5625 13.4375 C20.56814024 19.45179949 19.99821912 27.09239173 19 34 C17.02125311 41.79295031 13.86006954 47.62821765 7 52 C3.05127576 53.97436212 -1.69616767 53.43829693 -6 53 C-11.31989796 50.38841373 -14.9138781 46.77390844 -17.0859375 41.2265625 C-19.35699089 33.20993813 -18.79982142 24.86936634 -15.34765625 17.296875 C-12.81729546 12.98426009 -9.55823048 8.27911524 -5 6 C-2.85595831 5.90293287 -0.70873249 5.87021464 1.4375 5.875 C2.59121094 5.87242187 3.74492187 5.86984375 4.93359375 5.8671875 C8 6 8 6 11 7 C10.67 6.01 10.34 5.02 10 4 C8.906875 4.0825 7.81375 4.165 6.6875 4.25 C5.470625 4.1675 4.25375 4.085 3 4 C1.26953125 1.984375 1.26953125 1.984375 0 0 Z M-10.44140625 13.87109375 C-14.50318208 19.99268752 -15.17207397 25.09839198 -15.3125 32.4375 C-15.34988281 33.71496094 -15.38726562 34.99242187 -15.42578125 36.30859375 C-14.79864034 41.74573282 -12.37550981 44.72513725 -8.4375 48.375 C-6.07222659 50.2773501 -6.07222659 50.2773501 -3 50 C-3 49.01 -3 48.02 -3 47 C-2.34 47 -1.68 47 -1 47 C-1 47.99 -1 48.98 -1 50 C2.5821004 50.34115242 4.75636512 50.10938709 8.0625 48.625 C13.39879874 43.85639262 16.65949533 36.79874023 17.16796875 29.6328125 C17.22279689 22.59287959 16.36598968 16.76934351 12 11 C4.39366668 5.74800795 -4.65674885 6.36201274 -10.44140625 13.87109375 Z " fill="#888888" transform="translate(298,242)"/>
<path d="M0 0 C0.66 0 1.32 0 2 0 C4.50720009 10.26920126 6.49165229 20.59081845 8.3125 31 C8.5373558 32.28355881 8.5373558 32.28355881 8.76675415 33.5930481 C23.72764888 119.58441712 23.72764888 119.58441712 22 161 C21.67 161 21.34 161 21 161 C19.92578125 150.2578125 19.92578125 150.2578125 18.8515625 139.515625 C18.78429962 138.84412918 18.71703674 138.17263336 18.6477356 137.48078918 C18.27170808 133.72530118 17.89785798 129.96961102 17.52685547 126.21362305 C14.73039954 97.95560636 11.50003374 69.83785594 6.875 41.8125 C6.70514587 40.78323395 6.53529175 39.7539679 6.36029053 38.69351196 C4.54735819 27.76588108 2.64708103 16.86206703 0.52001953 5.9909668 C0 3 0 3 0 0 Z " fill="#5D5D5D" transform="translate(296,295)"/>
<path d="M0 0 C0.66 0 1.32 0 2 0 C2.01458252 0.65782471 2.02916504 1.31564941 2.04418945 1.9934082 C2.81770844 33.42342517 7.08162686 61.94040036 29 86 C29.91845703 87.04027344 29.91845703 87.04027344 30.85546875 88.1015625 C38.52100678 96.30646674 48.23420654 102.57594147 58 108 C57.505 109.485 57.505 109.485 57 111 C46.15053095 104.70480101 36.79877012 97.9533559 28 89 C26.86111328 87.85917969 26.86111328 87.85917969 25.69921875 86.6953125 C7.09086872 66.9668482 -0.95666008 39.74031616 -1.125 13.1875 C-1.12983398 12.45724609 -1.13466797 11.72699219 -1.13964844 10.97460938 C-1.12744482 7.19148738 -0.910275 3.67722204 0 0 Z " fill="#555555" transform="translate(111,409)"/>
<path d="M0 0 C1.04644066 1.63790712 2.0398183 3.31008021 3 5 C4.98689731 6.35278115 6.98745218 7.68568305 9 9 C15.58281633 15.95897726 16.57573886 22.34422766 16.34765625 31.67578125 C15.86314894 36.30854214 15.00557602 38.44076524 12 42 C7.77737852 45.1166968 3.59578613 45.65759332 -1.5390625 45.46484375 C-6.84957761 44.46174645 -9.4655101 41.09142405 -12.5390625 36.90234375 C-16.76639558 29.82923617 -17.29776091 22.05506774 -16 14 C-14.02081458 10.42335885 -12.92156059 8.46078029 -9.25 6.625 C-8.13625 6.315625 -8.13625 6.315625 -7 6 C-7.99 4.68 -8.98 3.36 -10 2 C-6.56062459 0.4277141 -3.78596147 -0.69741396 0 0 Z M-12 11 C-15.291442 16.22361955 -14.63862872 22.60292453 -13.53515625 28.47265625 C-11.93637597 33.98797519 -9.18852602 38.07981966 -5 42 C-1.80436932 43.59781534 1.5234633 43.36841911 5 43 C9.15908013 41.20403358 11.46264816 38.71447383 14 35 C15.62691263 26.43907354 13.80491982 19.13873802 9 12 C6.58022692 9.08203835 5.58989845 8.19663282 2 7 C-4.08195317 6.50147925 -7.1791151 6.86781295 -12 11 Z " fill="#8C8C8C" transform="translate(158,293)"/>
<path d="M0 0 C0.66 0 1.32 0 2 0 C0.65070106 3.62363273 -1.01488858 6.99890144 -2.81787109 10.41674805 C-6.98914322 18.3903322 -10.03854794 26.17346574 -12 35 C-12.22429687 36.00933594 -12.44859375 37.01867187 -12.6796875 38.05859375 C-16.75029397 59.94507375 -13.30999992 81.53388905 -3.3125 101.34375 C-2 104 -2 104 -2 106 C-2.66 106 -3.32 106 -4 106 C-12.35855534 90.12813649 -17.42015405 75.21081082 -17.25 57.0625 C-17.24250732 56.00490479 -17.23501465 54.94730957 -17.22729492 53.85766602 C-16.99294137 36.89911002 -12.7200253 12.7200253 0 0 Z " fill="#474747" transform="translate(235,435)"/>
<path d="M0 0 C0.33 0 0.66 0 1 0 C1.33 38.28 1.66 76.56 2 116 C1.34 116 0.68 116 0 116 C-0.83826671 109.45211721 -1.14367077 103.07611854 -1.12939453 96.47900391 C-1.13114685 95.46813721 -1.13289917 94.45727051 -1.13470459 93.41577148 C-1.13907604 90.10268393 -1.13620311 86.78965051 -1.1328125 83.4765625 C-1.13348658 81.16490672 -1.13445747 78.853251 -1.13571167 76.54159546 C-1.13718199 71.71180543 -1.13505433 66.88203396 -1.13037109 62.05224609 C-1.12465499 55.85476022 -1.12796889 49.65731747 -1.13394356 43.45983315 C-1.13755079 38.69359001 -1.13641016 33.92735718 -1.13381577 29.16111374 C-1.13314794 26.87490204 -1.13396989 24.58868941 -1.13629532 22.30247879 C-1.13882655 19.11650345 -1.1349754 15.93059895 -1.12939453 12.74462891 C-1.13141876 11.79707733 -1.13344299 10.84952576 -1.13552856 9.8732605 C-1.13270874 9.00707092 -1.12988892 8.14088135 -1.12698364 7.2484436 C-1.12660662 6.49596659 -1.12622959 5.74348957 -1.12584114 4.96821022 C-1 3 -1 3 0 0 Z " fill="#5F5F5F" transform="translate(209,451)"/>
<path d="M0 0 C0.33 0 0.66 0 1 0 C2.04556842 5.1427709 2.14174492 10.06664272 2.12939453 15.28735352 C2.13114685 16.20369064 2.13289917 17.12002777 2.13470459 18.06413269 C2.13909578 21.08574331 2.136193 24.10729506 2.1328125 27.12890625 C2.13348673 29.24153149 2.13445775 31.35415665 2.13571167 33.46678162 C2.13718529 37.89591205 2.13504636 42.32502231 2.13037109 46.75415039 C2.12469848 52.40032609 2.12793924 58.04645399 2.13394356 63.69262791 C2.13757916 68.05867362 2.13639645 72.42470825 2.13381577 76.79075432 C2.1331535 78.87053368 2.13395015 80.95031409 2.13629532 83.03009224 C2.14571073 93.73471853 2.1033058 104.34087061 1 115 C0.34 115 -0.32 115 -1 115 C-0.67 77.05 -0.34 39.1 0 0 Z " fill="#606060" transform="translate(282,452)"/>
<path d="M0 0 C5.16579022 4.46771046 7.47197369 8.75647147 8.3203125 15.57421875 C8.67512602 23.8650281 6.7915663 31.37850858 1.6875 38 C-1.75613675 40.56270642 -5.57000945 43 -10 43 C-10 46.63 -10 50.26 -10 54 C-10.33 54 -10.66 54 -11 54 C-11.33 50.37 -11.66 46.74 -12 43 C-13.546875 42.7215625 -13.546875 42.7215625 -15.125 42.4375 C-19.84834689 41.0934582 -22.4029971 38.04365552 -25 34 C-26 31.1875 -26 31.1875 -26 29 C-25.34 28.34 -24.68 27.68 -24 27 C-23.8040625 27.60328125 -23.608125 28.2065625 -23.40625 28.828125 C-21.65727492 33.50211014 -20.35494703 36.31718008 -15.75 38.5625 C-14.51162512 39.07095684 -13.26468147 39.56104502 -12 40 C-12 39.01 -12 38.02 -12 37 C-11.34 37 -10.68 37 -10 37 C-10 37.99 -10 38.98 -10 40 C-4.09587308 38.2684912 -4.09587308 38.2684912 0.375 34.25 C4.18582655 26.6283469 4.89873036 19.49514174 4 11 C2.97795286 8.17490743 1.8148168 6.45534038 0 4 C-0.66 3.01 -1.32 2.02 -2 1 C-1.34 0.67 -0.68 0.34 0 0 Z " fill="#7D7D7D" transform="translate(283,216)"/>
<path d="M0 0 C0.99 0.66 1.98 1.32 3 2 C3.1875 5.125 3.1875 5.125 3 8 C1.66195313 7.85691406 1.66195313 7.85691406 0.296875 7.7109375 C-0.87359375 7.60007813 -2.0440625 7.48921875 -3.25 7.375 C-4.41015625 7.25898438 -5.5703125 7.14296875 -6.765625 7.0234375 C-10.01648692 6.99988053 -11.47652145 6.99045644 -14 9 C-15.242832 11.48766633 -15.242832 11.48766633 -16.0625 14.375 C-17.71932473 19.65124014 -17.71932473 19.65124014 -19.578125 21.9609375 C-21.5031534 24.72155515 -21.50641258 26.91799155 -21.6875 30.25 C-21.78611328 31.86648437 -21.78611328 31.86648437 -21.88671875 33.515625 C-21.94279297 34.74539062 -21.94279297 34.74539062 -22 36 C-22.66 36 -23.32 36 -24 36 C-25.52694936 25.5603136 -24.67295305 18.07937057 -19.1875 9 C-15.21636638 5.36924926 -11.07928231 3.83816827 -5.75 3.75 C-2 4 -2 4 1 5 C0.67 3.35 0.34 1.7 0 0 Z " fill="#898989" transform="translate(280,209)"/>
<path d="M0 0 C6.39562721 4.36065492 8.87747509 9.67979792 10.46484375 17.203125 C10.70097438 18.79458076 10.8606235 20.39717022 11 22 C11.66 21.34 12.32 20.68 13 20 C15.6015625 19.8046875 15.6015625 19.8046875 18.625 19.875 C20.12933594 19.90207031 20.12933594 19.90207031 21.6640625 19.9296875 C22.43492187 19.95289063 23.20578125 19.97609375 24 20 C24.33 21.98 24.66 23.96 25 26 C24.28714844 25.97679687 23.57429688 25.95359375 22.83984375 25.9296875 C21.88207031 25.91164062 20.92429687 25.89359375 19.9375 25.875 C18.99777344 25.85179687 18.05804688 25.82859375 17.08984375 25.8046875 C13.44563349 26.03504213 10.47504339 26.89805116 7 28 C6.90203125 26.92621094 6.8040625 25.85242188 6.703125 24.74609375 C6.55292514 23.30980755 6.40183586 21.87361417 6.25 20.4375 C6.188125 19.73302734 6.12625 19.02855469 6.0625 18.30273438 C5.32971986 11.67718058 2.68508771 7.52763156 -1 2 C-0.67 1.34 -0.34 0.68 0 0 Z " fill="#818181" transform="translate(256,188)"/>
<path d="M0 0 C1.60495567 0.11442461 3.20898119 0.24194694 4.8125 0.375 C6.15248047 0.47941406 6.15248047 0.47941406 7.51953125 0.5859375 C10 1 10 1 13 3 C13.40843923 5.71203652 13.13336867 8.2437142 13 11 C10.61435923 10.42415568 8.33317216 9.77772405 6 9 C1.3958591 8.46504268 -2.08067654 8.56635686 -6.3125 10.5625 C-11.8891755 15.62041499 -13.63168097 21.24736649 -14.75 28.4375 C-14.93755859 29.53481445 -14.93755859 29.53481445 -15.12890625 30.65429688 C-15.43137073 32.43418399 -15.7174353 34.21684546 -16 36 C-16.33 36 -16.66 36 -17 36 C-17.79629162 19.01244534 -17.79629162 19.01244534 -13 13 C-12.21302734 11.99453125 -12.21302734 11.99453125 -11.41015625 10.96875 C-8.35679771 7.71527705 -6.17607468 6.1668191 -1.6953125 5.53125 C2.77945954 5.49138566 6.73874004 5.57958001 11 7 C10.67 6.01 10.34 5.02 10 4 C8.906875 4.0825 7.81375 4.165 6.6875 4.25 C5.470625 4.1675 4.25375 4.085 3 4 C1.26953125 1.984375 1.26953125 1.984375 0 0 Z " fill="#8A8A8A" transform="translate(298,242)"/>
<path d="M0 0 C0.66 0 1.32 0 2 0 C2.20625 0.94875 2.4125 1.8975 2.625 2.875 C3.70833333 6.29166667 3.70833333 6.29166667 7.125 7.375 C8.07375 7.58125 9.0225 7.7875 10 8 C10 8.66 10 9.32 10 10 C9.05125 10.20625 8.1025 10.4125 7.125 10.625 C3.70833333 11.70833333 3.70833333 11.70833333 2.625 15.125 C2.41875 16.07375 2.2125 17.0225 2 18 C1.34 18 0.68 18 0 18 C-0.20625 17.05125 -0.4125 16.1025 -0.625 15.125 C-1.70833333 11.70833333 -1.70833333 11.70833333 -5.125 10.625 C-6.07375 10.41875 -7.0225 10.2125 -8 10 C-8 9.34 -8 8.68 -8 8 C-7.05125 7.79375 -6.1025 7.5875 -5.125 7.375 C-1.70833333 6.29166667 -1.70833333 6.29166667 -0.625 2.875 C-0.41875 1.92625 -0.2125 0.9775 0 0 Z " fill="#717171" transform="translate(69,111)"/>
<path d="M0 0 C0.33 0 0.66 0 1 0 C1.03758423 1.15786011 1.03758423 1.15786011 1.07592773 2.33911133 C1.19184007 5.83041181 1.31458824 9.32143922 1.4375 12.8125 C1.47681641 14.02744141 1.51613281 15.24238281 1.55664062 16.49414062 C1.59853516 17.65751953 1.64042969 18.82089844 1.68359375 20.01953125 C1.72025146 21.09307861 1.75690918 22.16662598 1.79467773 23.27270508 C1.89541847 26.09311553 1.89541847 26.09311553 3 29 C2.34 29 1.68 29 1 29 C1 42.2 1 55.4 1 69 C0.34 69 -0.32 69 -1 69 C-1.02566965 61.90568834 -1.04299874 54.81138895 -1.05493164 47.71704102 C-1.05991419 45.31111198 -1.06670265 42.90518591 -1.07543945 40.49926758 C-1.12331578 26.96153313 -1.05654535 13.50162521 0 0 Z " fill="#666666" transform="translate(170,492)"/>
<path d="M0 0 C1.21816406 0.03480469 1.21816406 0.03480469 2.4609375 0.0703125 C3.68683594 0.09738281 3.68683594 0.09738281 4.9375 0.125 C5.87722656 0.15980469 5.87722656 0.15980469 6.8359375 0.1953125 C6.5059375 1.1853125 6.1759375 2.1753125 5.8359375 3.1953125 C3.5259375 3.1953125 1.2159375 3.1953125 -1.1640625 3.1953125 C-1.4940625 4.1853125 -1.8240625 5.1753125 -2.1640625 6.1953125 C-1.1740625 5.8653125 -0.1840625 5.5353125 0.8359375 5.1953125 C3.06412191 5.12594188 5.29428274 5.11074166 7.5234375 5.1328125 C9.29267578 5.14634766 9.29267578 5.14634766 11.09765625 5.16015625 C12.00128906 5.17175781 12.90492188 5.18335938 13.8359375 5.1953125 C14.1659375 6.1853125 14.4959375 7.1753125 14.8359375 8.1953125 C13.97871094 8.12570312 13.12148437 8.05609375 12.23828125 7.984375 C4.49660269 7.46121474 4.49660269 7.46121474 -2.2890625 10.6328125 C-7.62481061 16.24591385 -8.49004296 23.78109756 -9.1640625 31.1953125 C-9.4940625 31.1953125 -9.8240625 31.1953125 -10.1640625 31.1953125 C-10.27289846 28.81906073 -10.35172946 26.44787274 -10.4140625 24.0703125 C-10.44757813 23.40515625 -10.48109375 22.74 -10.515625 22.0546875 C-10.61636758 16.91681616 -9.3306496 14.1716757 -6.1640625 10.1953125 C-5.8340625 9.8653125 -5.5040625 9.5353125 -5.1640625 9.1953125 C-5.0196875 8.0609375 -4.8753125 6.9265625 -4.7265625 5.7578125 C-3.87262071 0.3495145 -3.87262071 0.3495145 0 0 Z " fill="#838383" transform="translate(185.1640625,252.8046875)"/>
<path d="M0 0 C1.485 0.99 1.485 0.99 3 2 C3.3359375 4.1796875 3.3359375 4.1796875 3.375 6.875 C3.86539978 14.31926871 5.87849145 22.08626222 11.46484375 27.30078125 C14.35670687 29.23908704 16.56270082 29.68025124 20 30 C20.33 28.35 20.66 26.7 21 25 C21.66 25 22.32 25 23 25 C22.67 26.98 22.34 28.96 22 31 C20.35 31 18.7 31 17 31 C17 31.66 17 32.32 17 33 C12.24792998 32.5806997 9.11886582 30.48831824 6 27 C1.88918432 20.49232437 -0.282522 13.84357809 -0.125 6.125 C-0.10695312 4.97257812 -0.08890625 3.82015625 -0.0703125 2.6328125 C-0.04710937 1.76398438 -0.02390625 0.89515625 0 0 Z " fill="#7E7E7E" transform="translate(174,274)"/>
<path d="M0 0 C0.33 0 0.66 0 1 0 C2.10140561 24.10789406 1.93121458 47.89243954 1 72 C0.67 72 0.34 72 0 72 C-0.14543189 66.22411046 -0.28767561 60.44815329 -0.42724609 54.67211914 C-0.47491999 52.7163696 -0.52339328 50.76063934 -0.57275391 48.80493164 C-0.82743348 38.69311309 -1.04611649 28.58414013 -1.0625 18.46875 C-1.06479614 17.70201462 -1.06709229 16.93527924 -1.06945801 16.14530945 C-1.06183773 10.69578493 -0.7082334 5.40027965 0 0 Z " fill="#535353" transform="translate(281,409)"/>
<path d="M0 0 C0.33 0 0.66 0 1 0 C3.01161576 14.08131034 1.93739125 28.36678224 1 42.5 C0.90318366 44.01689766 0.80682768 45.53382477 0.7109375 47.05078125 C0.47923085 50.70087368 0.24141428 54.35053518 0 58 C-0.33 58 -0.66 58 -1 58 C-1.17439753 56.27159593 -1.33889015 54.54219325 -1.5 52.8125 C-1.5928125 51.84957031 -1.685625 50.88664062 -1.78125 49.89453125 C-2.42380008 38.45484508 -1.74381583 27.10058015 -1 15.6875 C-0.90327399 14.1569245 -0.80691766 12.62632558 -0.7109375 11.09570312 C-0.478205 7.3968567 -0.24052222 3.69834905 0 0 Z " fill="#535353" transform="translate(218,265)"/>
<path d="M0 0 C2.71000247 0.28526342 4.55647772 0.69412256 6.8125 2.25 C8.39364795 4.58011277 8.22337696 6.24501755 8 9 C7.67 8.34 7.34 7.68 7 7 C1.06 7 -4.88 7 -11 7 C-11.33 7.66 -11.66 8.32 -12 9 C-11.125 2.125 -11.125 2.125 -10 1 C-7.67164772 0.92835839 -5.3597039 1.0035518 -3.03125 1.0625 C-1.00390764 1.23224945 -1.00390764 1.23224945 0 0 Z " fill="#797979" transform="translate(248,179)"/>
<path d="M0 0 C0.66 0 1.32 0 2 0 C2.433125 0.78375 2.86625 1.5675 3.3125 2.375 C5.26798281 5.41686215 6.60211849 5.98981901 10 7 C10 7.66 10 8.32 10 9 C8.824375 9.433125 8.824375 9.433125 7.625 9.875 C4.90328368 10.84912254 4.90328368 10.84912254 3 13 C2.3574765 15.06874034 2.3574765 15.06874034 2 17 C1.34 17 0.68 17 0 17 C-0.226875 16.236875 -0.45375 15.47375 -0.6875 14.6875 C-2.27302175 11.44095547 -3.90214579 10.71197206 -7 9 C-7 8.34 -7 7.68 -7 7 C-6.21625 6.54625 -5.4325 6.0925 -4.625 5.625 C-1.8764051 3.92348887 -1.12078968 2.95480916 0 0 Z " fill="#6B6B6B" transform="translate(419,212)"/>
<path d="M0 0 C2.85113031 4.27669546 2.60922166 7.98153661 2 13 C0.71298046 16.94149733 -1.26075165 19.45436432 -4.625 21.9375 C-9.21116455 23.38129254 -13.24835656 23.94582476 -18 23 C-21.96210077 20.68816872 -24.47481221 17.78778168 -27 14 C-26.625 11.8125 -26.625 11.8125 -26 10 C-25.51789063 10.63808594 -25.03578125 11.27617187 -24.5390625 11.93359375 C-23.59160156 13.17302734 -23.59160156 13.17302734 -22.625 14.4375 C-21.99851563 15.26121094 -21.37203125 16.08492188 -20.7265625 16.93359375 C-19.16246096 19.08528092 -19.16246096 19.08528092 -17 20 C-11.6598609 20.35017306 -8.33537781 20.46830225 -4 17 C-0.79252522 13.60385023 -0.54211521 10.84230425 -0.3125 6.25 C-0.24675781 5.07953125 -0.18101562 3.9090625 -0.11328125 2.703125 C-0.07589844 1.81109375 -0.03851563 0.9190625 0 0 Z " fill="#868686" transform="translate(172,315)"/>
<path d="M0 0 C0.99 0 1.98 0 3 0 C2.85871184 3.29187776 2.71110793 6.5834452 2.5625 9.875 C2.52318359 10.7928125 2.48386719 11.710625 2.44335938 12.65625 C2.23946439 17.11057111 1.97312296 21.53438186 1.5 25.96875 C0.91180436 31.51239781 0.66425599 37.05646755 0.4375 42.625 C0.39431641 43.62917969 0.35113281 44.63335937 0.30664062 45.66796875 C0.20190141 48.11188383 0.09972744 50.55587617 0 53 C-0.33 53 -0.66 53 -1 53 C-2.31783546 42.78677517 -2.4682801 32.64807041 -1.25390625 22.42456055 C-0.80167521 18.10618895 -0.63156995 13.77384977 -0.4375 9.4375 C-0.39431641 8.52419922 -0.35113281 7.61089844 -0.30664062 6.66992188 C-0.20188243 4.44672009 -0.09970983 2.22343293 0 0 Z " fill="#555555" transform="translate(172,449)"/>
<path d="M0 0 C0.66 0 1.32 0 2 0 C2.19214323 4.80509958 2.37088308 9.61043783 2.53710938 14.41650391 C2.59558 16.05205718 2.65773919 17.68748287 2.72363281 19.32275391 C2.8176061 21.67066214 2.89838991 24.01870678 2.9765625 26.3671875 C3.00875885 27.10057343 3.0409552 27.83395935 3.0741272 28.58956909 C3.12756428 30.39242355 3.07280193 32.19782365 3 34 C2.34 34.66 1.68 35.32 1 36 C-0.37231465 28.26847728 -1.19433282 20.78071942 -1.1875 12.9375 C-1.18814453 12.22408447 -1.18878906 11.51066895 -1.18945312 10.77563477 C-1.15079194 7.06723647 -0.87866113 3.60602529 0 0 Z " fill="#4C4C4C" transform="translate(111,409)"/>
<path d="M0 0 C2.36413592 1.82483701 2.9579118 2.69297764 3.37109375 5.70703125 C3.39300781 6.73183594 3.41492188 7.75664062 3.4375 8.8125 C3.74976176 13.98355468 4.43966115 17.03276528 8 21 C10.40902188 23.11701923 11.93132383 23.97710794 15 25 C15 24.01 15 23.02 15 22 C15.66 22 16.32 22 17 22 C17 22.99 17 23.98 17 25 C18.32 25.33 19.64 25.66 21 26 C19.35 26 17.7 26 16 26 C16 26.66 16 27.32 16 28 C10.95697519 27.75399879 8.1281733 26.14069796 4.546875 22.78125 C-1.13918698 16.23366347 -0.33850313 8.22437231 0 0 Z " fill="#797979" transform="translate(280,267)"/>
<path d="M0 0 C-2.91341061 6.88624326 -8.41481457 11.43540076 -14.1875 15.875 C-14.81591797 16.37257813 -15.44433594 16.87015625 -16.09179688 17.3828125 C-20.73749785 21 -20.73749785 21 -23 21 C-24.50156874 17.99686252 -24.09281204 15.20932478 -24.0625 11.875 C-24.05347656 10.59367187 -24.04445313 9.31234375 -24.03515625 7.9921875 C-24.02355469 7.00476563 -24.01195312 6.01734375 -24 5 C-23.67 5 -23.34 5 -23 5 C-23 9.29 -23 13.58 -23 18 C-15.8344396 13.32680844 -10.0963927 8.33042582 -4.25 2.16015625 C-2 0 -2 0 0 0 Z " fill="#535353" transform="translate(344,481)"/>
<path d="M0 0 C1.06347656 0.00515625 2.12695312 0.0103125 3.22265625 0.015625 C4.28355469 0.01046875 5.34445313 0.0053125 6.4375 0 C9.28515625 0.265625 9.28515625 0.265625 12.28515625 2.265625 C12.47265625 4.890625 12.47265625 4.890625 12.28515625 7.265625 C11.58003906 7.10191406 10.87492188 6.93820313 10.1484375 6.76953125 C7.18856937 6.24862676 4.47454352 6.16695768 1.47265625 6.203125 C0.49683594 6.21214844 -0.47898438 6.22117188 -1.484375 6.23046875 C-2.22042969 6.24207031 -2.95648438 6.25367188 -3.71484375 6.265625 C-4.33984375 4.390625 -4.33984375 4.390625 -4.71484375 2.265625 C-2.71484375 0.265625 -2.71484375 0.265625 0 0 Z " fill="#737373" transform="translate(214.71484375,213.734375)"/>
<path d="M0 0 C2 2 2 2 2.22705078 5.34814453 C2.22673375 6.77640633 2.21541361 8.20469212 2.1953125 9.6328125 C2.1924826 10.38464813 2.18965271 11.13648376 2.18673706 11.91110229 C2.17552874 14.31589578 2.15042352 16.72031881 2.125 19.125 C2.11497102 20.75390088 2.10584503 22.38280758 2.09765625 24.01171875 C2.07558735 28.00795556 2.04105351 32.00391494 2 36 C1.67 36 1.34 36 1 36 C1 25.11 1 14.22 1 3 C-4.13390088 5.62618848 -4.13390088 5.62618848 -9.26098633 8.265625 C-9.90318115 8.59046875 -10.54537598 8.9153125 -11.20703125 9.25 C-11.8616333 9.58515625 -12.51623535 9.9203125 -13.19067383 10.265625 C-15 11 -15 11 -18 11 C-18 10.34 -18 9.68 -18 9 C-12 6 -6 3 0 0 Z " fill="#464646" transform="translate(317,502)"/>
<path d="M0 0 C0.33 1.32 0.66 2.64 1 4 C0.44054687 3.84015625 -0.11890625 3.6803125 -0.6953125 3.515625 C-7.28389257 2.0415698 -13.22166622 2.3717439 -19 6 C-20.423125 6.8353125 -20.423125 6.8353125 -21.875 7.6875 C-22.57625 8.120625 -23.2775 8.55375 -24 9 C-24 6 -24 6 -22.125 3.8125 C-20 2 -20 2 -18 2 C-18 1.34 -18 0.68 -18 0 C-12.14072182 -1.67407948 -5.89014391 -1.52003714 0 0 Z " fill="#878787" transform="translate(255,186)"/>
<path d="M0 0 C0.33 0 0.66 0 1 0 C0.88754823 4.6002998 0.74323648 8.65521909 -2.1875 12.375 C-6.58103578 16.47563339 -9.88318856 18.15932534 -15.875 18.1875 C-17.25059402 18.1398309 -18.62605116 18.08243693 -20 18 C-20 17.34 -20 16.68 -20 16 C-19.18015625 15.84144531 -18.3603125 15.68289063 -17.515625 15.51953125 C-11.00400299 14.23754082 -11.00400299 14.23754082 -5.5 10.8125 C-3.59423861 7.2391974 -1.71237542 3.6706771 0 0 Z " fill="#838383" transform="translate(211,289)"/>
<path d="M0 0 C0.33 0 0.66 0 1 0 C1.50869827 3.6655138 2.00536408 7.33256427 2.5 11 C2.64308594 12.02996094 2.78617187 13.05992187 2.93359375 14.12109375 C3.92150097 21.50687633 4.83314869 28.66740524 3 36 C2.67 36 2.34 36 2 36 C1.46104028 31.87716144 0.94719792 27.75154998 0.4375 23.625 C0.28603516 22.46871094 0.13457031 21.31242187 -0.02148438 20.12109375 C-0.86068391 13.21233477 -1.08537978 6.88620823 0 0 Z " fill="#565656" transform="translate(310,370)"/>
<path d="M0 0 C0.66 0 1.32 0 2 0 C3.01866229 1.65532623 4.01810813 3.32260138 5 5 C5.66 5.33 6.32 5.66 7 6 C7 8 7 8 4.625 10.625 C2 13 2 13 0 13 C-0.474375 12.360625 -0.94875 11.72125 -1.4375 11.0625 C-2.9091365 8.71627037 -2.9091365 8.71627037 -6 8 C-6 7.34 -6 6.68 -6 6 C-5.195625 5.525625 -4.39125 5.05125 -3.5625 4.5625 C-0.7081924 3.20016328 -0.7081924 3.20016328 0 0 Z " fill="#737373" transform="translate(379,83)"/>
<path d="M0 0 C0.33 0 0.66 0 1 0 C2.88815789 27.546875 2.88815789 27.546875 1 41 C0.67 41 0.34 41 0 41 C-1.72113943 13.61544228 -1.72113943 13.61544228 0 0 Z " fill="#555555" transform="translate(276,311)"/>
<path d="M0 0 C0.99773437 0.02320313 1.99546875 0.04640625 3.0234375 0.0703125 C4.52777344 0.09738281 4.52777344 0.09738281 6.0625 0.125 C6.83335937 0.14820313 7.60421875 0.17140625 8.3984375 0.1953125 C8.7284375 2.1753125 9.0584375 4.1553125 9.3984375 6.1953125 C4.4484375 6.1953125 -0.5015625 6.1953125 -5.6015625 6.1953125 C-4.13025416 0.31007914 -4.13025416 0.31007914 0 0 Z " fill="#737373" transform="translate(271.6015625,207.8046875)"/>
<path d="M0 0 C2.875 -0.125 2.875 -0.125 6 0 C8 2 8 2 8 6 C0.08 6.495 0.08 6.495 -8 7 C-7.67 5.68 -7.34 4.36 -7 3 C-4.69 3 -2.38 3 0 3 C0 2.01 0 1.02 0 0 Z " fill="#727272" transform="translate(191,252)"/>
<path d="M0 0 C0.99 0.66 1.98 1.32 3 2 C3.1875 5.125 3.1875 5.125 3 8 C2.13117188 7.88140625 1.26234375 7.7628125 0.3671875 7.640625 C-6.97957836 6.48852353 -6.97957836 6.48852353 -13.6875 8.875 C-14.450625 9.57625 -15.21375 10.2775 -16 11 C-16.99 11.495 -16.99 11.495 -18 12 C-17.9375 9.6875 -17.9375 9.6875 -17 7 C-11.87182563 3.96495803 -7.88844641 3.60743691 -2 4 C-1.01 4.33 -0.02 4.66 1 5 C0.67 3.35 0.34 1.7 0 0 Z " fill="#898989" transform="translate(280,209)"/>
<path d="M0 0 C0.99 0.66 1.98 1.32 3 2 C2.21625 2.680625 1.4325 3.36125 0.625 4.0625 C-4.6364399 9.95030179 -4.48076418 17.44375243 -5 25 C-5.66 25 -6.32 25 -7 25 C-7.99832215 8.16163311 -7.99832215 8.16163311 -2 1 C-1.34 0.67 -0.68 0.34 0 0 Z " fill="#858585" transform="translate(209,222)"/>
<path d="M0 0 C0.66 0 1.32 0 2 0 C2 2.31 2 4.62 2 7 C4.31 7 6.62 7 9 7 C9 7.66 9 8.32 9 9 C6.69 9 4.38 9 2 9 C2 11.31 2 13.62 2 16 C1.34 16 0.68 16 0 16 C0 13.69 0 11.38 0 9 C-2.31 9 -4.62 9 -7 9 C-7 8.34 -7 7.68 -7 7 C-4.69 7 -2.38 7 0 7 C0 4.69 0 2.38 0 0 Z " fill="#575757" transform="translate(409,412)"/>
<path d="M0 0 C0.66 0 1.32 0 2 0 C2 2.31 2 4.62 2 7 C4.31 7 6.62 7 9 7 C9 7.66 9 8.32 9 9 C6.69 9 4.38 9 2 9 C2 11.31 2 13.62 2 16 C1.34 16 0.68 16 0 16 C0 13.69 0 11.38 0 9 C-2.31 9 -4.62 9 -7 9 C-7 8.34 -7 7.68 -7 7 C-4.69 7 -2.38 7 0 7 C0 4.69 0 2.38 0 0 Z " fill="#575757" transform="translate(39,392)"/>
<path d="M0 0 C0.66 0 1.32 0 2 0 C2 2.31 2 4.62 2 7 C4.31 7 6.62 7 9 7 C9 7.66 9 8.32 9 9 C6.69 9 4.38 9 2 9 C2 11.31 2 13.62 2 16 C1.34 16 0.68 16 0 16 C0 13.69 0 11.38 0 9 C-2.31 9 -4.62 9 -7 9 C-7 8.34 -7 7.68 -7 7 C-4.69 7 -2.38 7 0 7 C0 4.69 0 2.38 0 0 Z " fill="#575757" transform="translate(429,142)"/>
<path d="M0 0 C0.66 0 1.32 0 2 0 C2 2.31 2 4.62 2 7 C4.31 7 6.62 7 9 7 C9 7.66 9 8.32 9 9 C6.69 9 4.38 9 2 9 C2 11.31 2 13.62 2 16 C1.34 16 0.68 16 0 16 C0 13.69 0 11.38 0 9 C-2.31 9 -4.62 9 -7 9 C-7 8.34 -7 7.68 -7 7 C-4.69 7 -2.38 7 0 7 C0 4.69 0 2.38 0 0 Z " fill="#575757" transform="translate(149,62)"/>
<path d="M0 0 C0.66 0 1.32 0 2 0 C2 2.31 2 4.62 2 7 C4.31 7 6.62 7 9 7 C9 7.66 9 8.32 9 9 C6.69 9 4.38 9 2 9 C2 11.31 2 13.62 2 16 C1.34 16 0.68 16 0 16 C0 13.69 0 11.38 0 9 C-2.31 9 -4.62 9 -7 9 C-7 8.34 -7 7.68 -7 7 C-4.69 7 -2.38 7 0 7 C0 4.69 0 2.38 0 0 Z " fill="#575757" transform="translate(249,42)"/>
<path d="M0 0 C0.33 0 0.66 0 1 0 C1.33 14.85 1.66 29.7 2 45 C-1.74622574 41.25377426 -0.8333135 35.07258787 -1 30 C-0.97408616 24.72354322 -0.78673206 19.45855045 -0.5625 14.1875 C-0.50908455 12.80145837 -0.45634677 11.41539046 -0.40429688 10.02929688 C-0.27615196 6.68587947 -0.14127569 3.34288386 0 0 Z " fill="#3B3B3B" transform="translate(92,379)"/>
<path d="M0 0 C2.475 0.99 2.475 0.99 5 2 C5 2.66 5 3.32 5 4 C8.465 3.505 8.465 3.505 12 3 C12.33 4.32 12.66 5.64 13 7 C8.05 6.67 3.1 6.34 -2 6 C-1 1 -1 1 0 0 Z " fill="#4D4D4D" transform="translate(296,242)"/>
<path d="M0 0 C4.95198041 7.42797062 1.09580404 20.47816679 0 29 C-0.33 29 -0.66 29 -1 29 C-2.26991104 18.97799937 -1.53749569 9.89842269 0 0 Z " fill="#555555" transform="translate(178,394)"/>
<path d="M0 0 C0.66 0 1.32 0 2 0 C2.28875 0.639375 2.5775 1.27875 2.875 1.9375 C3.82823451 4.15206079 3.82823451 4.15206079 6 5 C6 7 6 7 4.125 9.125 C2 11 2 11 0 11 C-0.66 10.01 -1.32 9.02 -2 8 C-2.99 7.67 -3.98 7.34 -5 7 C-5 6.34 -5 5.68 -5 5 C-4.360625 4.731875 -3.72125 4.46375 -3.0625 4.1875 C-0.66868314 3.11332248 -0.66868314 3.11332248 0 0 Z " fill="#6E6E6E" transform="translate(59,254)"/>
<path d="M0 0 C2.33058639 3.49587959 3.19132 6.92041315 4.1875 10.9375 C4.47270508 12.01161133 4.47270508 12.01161133 4.76367188 13.10742188 C5.6919477 16.80339833 6.1215946 19.36551019 5 23 C2.07948449 20.07948449 1.71143432 16.5322813 0.8125 12.625 C0.62236328 11.85671875 0.43222656 11.0884375 0.23632812 10.296875 C0.06166016 9.55179687 -0.11300781 8.80671875 -0.29296875 8.0390625 C-0.4530542 7.36053223 -0.61313965 6.68200195 -0.77807617 5.98291016 C-1.02853854 3.74500552 -0.66529427 2.13646318 0 0 Z " fill="#424242" transform="translate(388,353)"/>
<path d="M0 0 C2 2 2 2 2.23046875 5.265625 C2.21628906 6.58046875 2.20210938 7.8953125 2.1875 9.25 C2.18105469 10.55453125 2.17460937 11.8590625 2.16796875 13.203125 C2.01934003 16.56282529 1.63984932 19.7034963 1 23 C0.34 23 -0.32 23 -1 23 C-1.12152487 15.26291674 -0.84800767 7.692641 0 0 Z " fill="#5A5A5A" transform="translate(318,538)"/>
<path d="M0 0 C6.83657757 6.4767577 6.83657757 6.4767577 7.1953125 12.015625 C7.17210937 13.08296875 7.14890625 14.1503125 7.125 15.25 C7.10695313 16.32765625 7.08890625 17.4053125 7.0703125 18.515625 C7.04710937 19.33546875 7.02390625 20.1553125 7 21 C6.67 21 6.34 21 6 21 C5.84144531 20.14277344 5.68289063 19.28554687 5.51953125 18.40234375 C4.0912406 11.40293046 2.68070326 6.43973623 -2 1 C-1.34 0.67 -0.68 0.34 0 0 Z " fill="#828282" transform="translate(283,216)"/>
<path d="M0 0 C2.125 -0.4375 2.125 -0.4375 5 0 C9.47143355 3.75600418 12.23640377 8.50172942 14 14 C13.6875 16.4375 13.6875 16.4375 13 18 C13 17.01 13 16.02 13 15 C12.34 15 11.68 15 11 15 C10.67386719 14.31292969 10.34773437 13.62585938 10.01171875 12.91796875 C9.35623047 11.56638672 9.35623047 11.56638672 8.6875 10.1875 C8.25824219 9.29417969 7.82898438 8.40085937 7.38671875 7.48046875 C5.39153769 3.91162376 3.39700238 2.26466825 0 0 Z " fill="#7D7D7D" transform="translate(160,300)"/>
<path d="M0 0 C1.625 2 1.625 2 3 4 C2.34 5.32 1.68 6.64 1 8 C-3 8 -3 8 -6 6 C-6 4 -6 4 -4.125 1.875 C-2 0 -2 0 0 0 Z " fill="#686868" transform="translate(341,55)"/>
<path d="M0 0 C1.75570312 0.02707031 1.75570312 0.02707031 3.546875 0.0546875 C4.88492188 0.08949219 4.88492188 0.08949219 6.25 0.125 C6.58 1.115 6.91 2.105 7.25 3.125 C6.36957031 3.10179687 5.48914063 3.07859375 4.58203125 3.0546875 C3.42058594 3.03664063 2.25914062 3.01859375 1.0625 3 C-0.08605469 2.97679687 -1.23460937 2.95359375 -2.41796875 2.9296875 C-5.66740372 3.12015848 -7.83660521 3.73139873 -10.75 5.125 C-10.75 4.135 -10.75 3.145 -10.75 2.125 C-7.15537669 -0.13498595 -4.18404325 -0.08368087 0 0 Z " fill="#979797" transform="translate(192.75,257.875)"/>
<path d="M0 0 C0.33 0 0.66 0 1 0 C1.39130435 12.2173913 1.39130435 12.2173913 -1 17 C-1.99 17.33 -2.98 17.66 -4 18 C-3.71880143 15.37348569 -3.42556162 12.74930665 -3.125 10.125 C-3.04636719 9.37863281 -2.96773438 8.63226563 -2.88671875 7.86328125 C-2.2265625 2.2265625 -2.2265625 2.2265625 0 0 Z " fill="#707070" transform="translate(290,229)"/>
<path d="M0 0 C2.8815101 2.8815101 2.78864028 6.11915061 3.25 10 C3.4046875 11.10601562 3.4046875 11.10601562 3.5625 12.234375 C3.79984611 14.14710543 3.9087172 16.07476279 4 18 C3.34 18.66 2.68 19.32 2 20 C-0.1103435 15.72115394 -0.24128739 11.86135858 -0.125 7.1875 C-0.11597656 6.49462891 -0.10695312 5.80175781 -0.09765625 5.08789062 C-0.07426157 3.39177605 -0.03839641 1.69584129 0 0 Z " fill="#7C7C7C" transform="translate(142,307)"/>
<path d="M0 0 C0.66 0 1.32 0 2 0 C1.37618048 9.87355719 1.37618048 9.87355719 -2 14 C-4.1875 15.3125 -4.1875 15.3125 -6 16 C-5.731875 15.484375 -5.46375 14.96875 -5.1875 14.4375 C-2.88996248 9.72150193 -0.7906619 5.21836852 0 0 Z " fill="#878787" transform="translate(234,245)"/>
<path d="M0 0 C1.051875 0.185625 2.10375 0.37125 3.1875 0.5625 C6.57119882 0.95079331 8.76425888 0.88247485 12 0 C12.33 1.32 12.66 2.64 13 4 C8.38 4 3.76 4 -1 4 C-0.67 2.68 -0.34 1.36 0 0 Z " fill="#0F0F0F" transform="translate(240,182)"/>
<path d="M0 0 C1.60495567 0.11442461 3.20898119 0.24194694 4.8125 0.375 C5.70582031 0.44460937 6.59914063 0.51421875 7.51953125 0.5859375 C10 1 10 1 13 3 C13.1875 6.125 13.1875 6.125 13 9 C12.01 8.34 11.02 7.68 10 7 C10 6.01 10 5.02 10 4 C8.3603125 4.12375 8.3603125 4.12375 6.6875 4.25 C5.470625 4.1675 4.25375 4.085 3 4 C1.26953125 1.984375 1.26953125 1.984375 0 0 Z " fill="#7C7C7C" transform="translate(298,242)"/>
<path d="M0 0 C1.16306443 3.54950034 0.92365049 6.55823948 0.5625 10.25 C0.40974609 11.86648437 0.40974609 11.86648437 0.25390625 13.515625 C0.17011719 14.33546875 0.08632813 15.1553125 0 16 C-0.66 16 -1.32 16 -2 16 C-2.24887295 13.89807303 -2.4734719 11.79326036 -2.6875 9.6875 C-2.81511719 8.51574219 -2.94273437 7.34398437 -3.07421875 6.13671875 C-3 3 -3 3 -1.51953125 1.08203125 C-1.01808594 0.72496094 -0.51664062 0.36789063 0 0 Z " fill="#9C9C9C" transform="translate(258,229)"/>
<path d="M0 0 C4.22141034 1.50764655 5.80349864 4.21292869 8 8 C8.75 10.375 8.75 10.375 9 12 C5.5912072 10.6015209 4.12606165 9.14993067 2.25 6 C1.82203125 5.29875 1.3940625 4.5975 0.953125 3.875 C0 2 0 2 0 0 Z " fill="#B7B7B7" transform="translate(227,222)"/>
<path d="M0 0 C0.99 0 1.98 0 3 0 C2.45162532 5.20955943 1.81162014 10.06836739 0 15 C-0.99 15.33 -1.98 15.66 -3 16 C-2.01 10.72 -1.02 5.44 0 0 Z " fill="#414141" transform="translate(365,283)"/>
<path d="M0 0 C0.99 0.33 1.98 0.66 3 1 C4.00496852 4.01490557 4.10335303 6.04181692 4.0625 9.1875 C4.05347656 10.08855469 4.04445312 10.98960937 4.03515625 11.91796875 C4.02355469 12.60503906 4.01195312 13.29210937 4 14 C3.67 13.34 3.34 12.68 3 12 C2.34 12 1.68 12 1 12 C0.67 8.04 0.34 4.08 0 0 Z " fill="#767676" transform="translate(233,233)"/>
<path d="M0 0 C0 0.33 0 0.66 0 1 C-13.27374302 3.2122905 -13.27374302 3.2122905 -19 0 C-12.42150508 -0.95494281 -6.58183362 -0.8931507 0 0 Z " fill="#424242" transform="translate(309,605)"/>
<path d="M0 0 C1.65 0 3.3 0 5 0 C5.66 1.65 6.32 3.3 7 5 C4.36 5 1.72 5 -1 5 C-0.67 3.35 -0.34 1.7 0 0 Z " fill="#4F4F4F" transform="translate(153,293)"/>
<path d="M0 0 C0.33 0 0.66 0 1 0 C1.66 5.61 2.32 11.22 3 17 C1.68 16.34 0.36 15.68 -1 15 C-1.33 15.66 -1.66 16.32 -2 17 C-2.66 16.34 -3.32 15.68 -4 15 C-3.34 14.67 -2.68 14.34 -2 14 C-1.53193355 11.66255706 -1.17330206 9.30260921 -0.875 6.9375 C-0.70742187 5.64714844 -0.53984375 4.35679687 -0.3671875 3.02734375 C-0.24601563 2.02832031 -0.12484375 1.02929688 0 0 Z " fill="#7D7D7D" transform="translate(228,207)"/>
<path d="M0 0 C0.33 0 0.66 0 1 0 C2.32388229 6.43028541 3.24794402 12.4294834 3 19 C2.67 19 2.34 19 2 19 C1.67 17.02 1.34 15.04 1 13 C0.67 13 0.34 13 0 13 C-0.19551338 11.39679026 -0.38111983 9.79237014 -0.5625 8.1875 C-0.71912109 6.84751953 -0.71912109 6.84751953 -0.87890625 5.48046875 C-1 3 -1 3 0 0 Z " fill="#3F3F3F" transform="translate(403,480)"/>
<path d="M0 0 C2.57619276 1.91315119 2.98395232 2.9016314 3.51171875 6.13671875 C3.56972656 7.30847656 3.62773437 8.48023438 3.6875 9.6875 C3.75324219 10.86699219 3.81898438 12.04648437 3.88671875 13.26171875 C3.92410156 14.16535156 3.96148437 15.06898438 4 16 C3.01 16 2.02 16 1 16 C-0.14077657 12.57767028 -0.09815117 9.91326783 -0.0625 6.3125 C-0.05347656 5.13300781 -0.04445313 3.95351563 -0.03515625 2.73828125 C-0.02355469 1.83464844 -0.01195312 0.93101562 0 0 Z " fill="#737373" transform="translate(280,267)"/>
<path d="M0 0 C2.631724 2.45627573 4.81527263 4.55352037 6 8 C5.625 10.25 5.625 10.25 5 12 C4.34 12 3.68 12 3 12 C2.71125 11.113125 2.4225 10.22625 2.125 9.3125 C1.16851252 6.49617576 0.13201054 3.74916844 -1 1 C-0.67 0.67 -0.34 0.34 0 0 Z " fill="#7E7E7E" transform="translate(311,252)"/>
<path d="M0 0 C1.175625 0.185625 1.175625 0.185625 2.375 0.375 C2.91125 0.58125 3.4475 0.7875 4 1 C4.33 1.99 4.66 2.98 5 4 C-0.61 3.01 -6.22 2.02 -12 1 C-12 0.67 -12 0.34 -12 0 C-7.72630195 -1.16555401 -4.3333664 -0.7878848 0 0 Z " fill="#424242" transform="translate(194,169)"/>
<path d="M0 0 C0.33 0 0.66 0 1 0 C1 4.29 1 8.58 1 13 C2.65 12.34 4.3 11.68 6 11 C6 11.99 6 12.98 6 14 C4.35 14.66 2.7 15.32 1 16 C-0.50156874 12.99686252 -0.09281204 10.20932478 -0.0625 6.875 C-0.05347656 5.59367187 -0.04445313 4.31234375 -0.03515625 2.9921875 C-0.02355469 2.00476563 -0.01195312 1.01734375 0 0 Z " fill="#464646" transform="translate(320,486)"/>
<path d="M0 0 C4.95 1.98 4.95 1.98 10 4 C10 4.99 10 5.98 10 7 C6.4257023 6.67506385 4.44287547 6.36129314 1.625 4.0625 C0 2 0 2 0 0 Z " fill="#808080" transform="translate(235,231)"/>
<path d="M0 0 C0.9075 0.185625 1.815 0.37125 2.75 0.5625 C5.68314324 0.95734621 7.2644657 0.94691572 10 0 C10.33 0.99 10.66 1.98 11 3 C5.06 3.495 5.06 3.495 -1 4 C-0.67 2.68 -0.34 1.36 0 0 Z " fill="#131313" transform="translate(213,216)"/>
<path d="M0 0 C0.33 0 0.66 0 1 0 C1.05429959 1.74965358 1.09292823 3.49979787 1.125 5.25 C1.14820313 6.22453125 1.17140625 7.1990625 1.1953125 8.203125 C0.99862781 11.0196498 0.44568916 12.60949036 -1 15 C-1.91147322 10.03753471 -1.99130954 5.95654768 -1 1 C-0.67 0.67 -0.34 0.34 0 0 Z " fill="#565656" transform="translate(187,340)"/>
<path d="M0 0 C0 0.99 0 1.98 0 3 C-2.88211302 3.96070434 -4.69850044 4.10581883 -7.6875 4.0625 C-8.89986328 4.04896484 -8.89986328 4.04896484 -10.13671875 4.03515625 C-11.05904297 4.01775391 -11.05904297 4.01775391 -12 4 C-12 3.34 -12 2.68 -12 2 C-10.37548581 1.66430703 -8.75037083 1.3315204 -7.125 1 C-6.22007812 0.814375 -5.31515625 0.62875 -4.3828125 0.4375 C-2 0 -2 0 0 0 Z " fill="#8E8E8E" transform="translate(203,303)"/>
<path d="M0 0 C1.5778125 0.2475 1.5778125 0.2475 3.1875 0.5 C6.20468796 0.89569678 8.97093972 1.09178971 12 1 C12 1.99 12 2.98 12 4 C8.04 3.67 4.08 3.34 0 3 C0 2.01 0 1.02 0 0 Z " fill="#121212" transform="translate(269,210)"/>
<path d="M0 0 C5 7.5 5 7.5 5 12 C1.50291018 8.86158606 -0.73915094 6.8257077 -1 2 C-0.67 1.34 -0.34 0.68 0 0 Z " fill="#858585" transform="translate(258,243)"/>
<path d="M0 0 C1.32 0.66 2.64 1.32 4 2 C4 2.66 4 3.32 4 4 C3.195625 4.28875 2.39125 4.5775 1.5625 4.875 C-1.1326468 5.73262568 -1.1326468 5.73262568 -2 8 C-2.125 5.125 -2.125 5.125 -2 2 C-1.34 1.34 -0.68 0.68 0 0 Z " fill="#4A4A4A" transform="translate(147,295)"/>
<path d="M0 0 C3.11743233 1.50098594 6.15501823 3.02431822 9 5 C9 5.99 9 6.98 9 8 C5.08158173 6.69386058 2.67359191 5.16870152 0 2 C0 1.34 0 0.68 0 0 Z " fill="#838383" transform="translate(206,256)"/>
<path d="M0 0 C1 2 1 2 0.44140625 4.1640625 C0.15136719 4.97617188 -0.13867188 5.78828125 -0.4375 6.625 C-0.72496094 7.44226563 -1.01242187 8.25953125 -1.30859375 9.1015625 C-1.53675781 9.72804687 -1.76492188 10.35453125 -2 11 C-2.99 10.67 -3.98 10.34 -5 10 C-3.84414715 6.08788267 -2.64465038 3.1254959 0 0 Z " fill="#7C7C7C" transform="translate(262,217)"/>
<path d="M0 0 C0.33 0.99 0.66 1.98 1 3 C0.01 4.485 0.01 4.485 -1 6 C-1.38499891 7.65549531 -1.72793135 9.3222433 -2 11 C-2.99 10.34 -3.98 9.68 -5 9 C-3.375 2.25 -3.375 2.25 0 0 Z " fill="#808080" transform="translate(232,193)"/>
<path d="M0 0 C0.99 0.33 1.98 0.66 3 1 C0.75 3.5625 0.75 3.5625 -2 6 C-4.3125 5.8125 -4.3125 5.8125 -6 5 C-5.195625 4.360625 -4.39125 3.72125 -3.5625 3.0625 C-1.7249496 1.59396498 -1.7249496 1.59396498 0 0 Z " fill="#797979" transform="translate(169,331)"/>
<path d="M0 0 C1.67542976 0.28604898 3.34385343 0.61781233 5 1 C4.01 1.66 3.02 2.32 2 3 C1.67 3.99 1.34 4.98 1 6 C0.34 6 -0.32 6 -1 6 C-1.33 6.66 -1.66 7.32 -2 8 C-1.125 1.125 -1.125 1.125 0 0 Z " fill="#6A6A6A" transform="translate(238,180)"/>
<path d="M0 0 C2.31 0 4.62 0 7 0 C7.33 1.32 7.66 2.64 8 4 C5.33333333 3.33333333 2.66666667 2.66666667 0 2 C0 1.34 0 0.68 0 0 Z " fill="#999999" transform="translate(248,186)"/>
<path d="M0 0 C3.625 -0.1875 3.625 -0.1875 7 0 C5.875 1.5 5.875 1.5 4 3 C0.8125 3.1875 0.8125 3.1875 -2 3 C-1.34 2.01 -0.68 1.02 0 0 Z " fill="#414141" transform="translate(162,167)"/>
<path d="M0 0 C-1.33332095 3.99996286 -3.4957827 4.83782337 -7 7 C-6.75 4.625 -6.75 4.625 -6 2 C-3.84898936 0.54286376 -2.59713506 0 0 0 Z " fill="#B7B7B7" transform="translate(269,214)"/>
<path d="M0 0 C3.625 0.375 3.625 0.375 7 1 C7 1.99 7 2.98 7 4 C2.545 3.01 2.545 3.01 -2 2 C-1.34 1.34 -0.68 0.68 0 0 Z " fill="#414141" transform="translate(160,598)"/>
<path d="M0 0 C0.66 0 1.32 0 2 0 C1.67 1.98 1.34 3.96 1 6 C-0.98 6 -2.96 6 -5 6 C-3.68 5.67 -2.36 5.34 -1 5 C-0.67 3.35 -0.34 1.7 0 0 Z " fill="#565656" transform="translate(195,299)"/>
<path d="M0 0 C1.65 0.33 3.3 0.66 5 1 C3.6875 2.5 3.6875 2.5 2 4 C1.01 4 0.02 4 -1 4 C-0.67 2.68 -0.34 1.36 0 0 Z " fill="#131313" transform="translate(184,255)"/>
<path d="M0 0 C0 0.99 0 1.98 0 3 C-2.97 2.505 -2.97 2.505 -6 2 C-6 1.34 -6 0.68 -6 0 C-3.50907189 -1.24546405 -2.58919267 -0.7767578 0 0 Z " fill="#181818" transform="translate(309,246)"/>
<path d="M0 0 C1.65 0.33 3.3 0.66 5 1 C5 1.66 5 2.32 5 3 C2.69 3 0.38 3 -2 3 C-1.34 2.01 -0.68 1.02 0 0 Z " fill="#101010" transform="translate(192,254)"/>
</svg>
